<svg xmlns="http://www.w3.org/2000/svg" viewBox="0 0 400 300" fill="none">
  <rect width="400" height="300" fill="#f4f7f5"/>
  <circle cx="348" cy="46" r="72" fill="#e7ede8"/>
  <circle cx="44" cy="268" r="54" fill="#fdf3f4"/>
  <rect x="86" y="72" width="196" height="178" rx="16" fill="#ffffff" stroke="#cfdad1" stroke-width="5"/>
  <path d="M86 112a16 16 0 0116-16h164a16 16 0 0116 16v8H86z" fill="#5f7864"/>
  <rect x="122" y="56" width="14" height="36" rx="7" fill="#3d4e40"/>
  <rect x="232" y="56" width="14" height="36" rx="7" fill="#3d4e40"/>
  <circle cx="126" cy="152" r="11" fill="#cfdad1"/>
  <circle cx="170" cy="152" r="11" fill="#cfdad1"/>
  <circle cx="214" cy="152" r="11" fill="#cfdad1"/>
  <circle cx="126" cy="192" r="11" fill="#cfdad1"/>
  <circle cx="170" cy="192" r="18" fill="#d96f80"/>
  <circle cx="214" cy="192" r="11" fill="#cfdad1"/>
  <circle cx="126" cy="228" r="11" fill="#cfdad1"/>
  <circle cx="214" cy="228" r="11" fill="#cfdad1"/>
  <path d="M292 214a32 32 0 0164 0v22l8 12h-80l8-12z" fill="#f6cad0" stroke="#d96f80" stroke-width="5" stroke-linejoin="round"/>
  <path d="M312 258a12 12 0 0024 0" stroke="#d96f80" stroke-width="5" stroke-linecap="round"/>
</svg>
